<svg width="140" height="28" viewBox="0 0 140 28" fill="none" xmlns="http://www.w3.org/2000/svg">
  <g clip-path="url(#clip0_3993_8576)">
    <path d="M47.2313 5.49871H42.5703V22.7236H47.2313V5.49871Z" fill="#1D1F2A" />
    <path
      d="M140.482 5.46559H124.914V9.83806H130.383V22.3923L135.044 27.1954V9.83806H140.482V5.46559Z"
      fill="#1D1F2A" />
    <path
      d="M60.8414 13.6805L53.1352 5.49871H49.9036V22.6905H54.5646V13.9455L62.799 22.6905H65.4713V5.49871H60.8414V13.6805Z"
      fill="#1D1F2A" />
    <path
      d="M83.7113 9.87118V5.49871H71.6549C69.7283 5.49871 68.1436 7.18808 68.1436 9.24181V18.9805C68.1436 21.0342 69.7283 22.7236 71.6549 22.7236H83.7113V18.3511H72.8046V9.87118H83.7113Z"
      fill="#1D1F2A" />
    <path
      d="M31.0111 5.49871V6.8237L21.627 16.8274V22.7236H22.5903L26.723 18.3511H35.2371V22.7236H39.898V5.49871H31.0111ZM30.8247 13.9787L35.2371 9.27494V13.9787H30.8247Z"
      fill="#1D1F2A" />
    <path
      d="M95.6123 6.9562L86.3836 16.8274V22.7236H87.3469L91.4796 18.318H99.9936V22.6905H104.655V5.46559H95.6123V6.9562ZM95.5813 13.9787L99.9936 9.27494V13.9787H95.5813Z"
      fill="#1D1F2A" />
    <path
      d="M110.838 5.49871C108.912 5.49871 107.327 7.15495 107.327 9.24181V13.4818C107.327 15.0386 108.508 16.2974 109.968 16.2974C113.2 16.2974 118.234 16.2974 118.234 16.2974V18.3842H111.118L107.327 22.4255V22.7236H119.383C121.31 22.7236 122.895 21.0674 122.895 18.9805V14.7405C122.895 13.1837 121.714 11.9249 120.253 11.9249H111.988V9.87118H119.104L122.895 5.82996V5.53184H110.838V5.49871Z"
      fill="#1D1F2A" />
    <path
      d="M9.53948 9.87118L0.279659 0C0.155366 0.0662495 0.124293 0.0662495 0 0.132499V6.79058L9.57055 16.993C9.66377 16.993 9.72592 16.993 9.81914 16.993L14.6044 11.8918V22.3261L19.11 27.1292C19.2343 27.0629 19.2654 27.0629 19.3897 26.9967V4.70372C19.3275 4.63747 19.2965 4.60434 19.2343 4.53809H14.5733L9.78806 9.87118C9.69484 9.87118 9.66377 9.87118 9.53948 9.87118Z"
      fill="#1D1F2A" />
    <path
      d="M0.279659 27.1291L6.43216 20.5704L0.279659 14.0117C0.155366 14.078 0.124293 14.078 0 14.1442V26.9966C0.124293 27.0629 0.155366 27.0629 0.279659 27.1291Z"
      fill="#F4252D" />
  </g>
  <defs>
    <clipPath id="clip0_3993_8576">
      <rect width="140" height="28" fill="white" />
    </clipPath>
  </defs>
</svg>
  